<?xml version="1.0" encoding="UTF-8" standalone="no"?>
<svg
   id="svg5"
   version="1.1"
   viewBox="0 0 4096 4096"
   height="4096"
   width="4096"
   sodipodi:docname="TshirtAZonaA.svg"
   xml:space="preserve"
   inkscape:version="1.2.1 (9c6d41e410, 2022-07-14)"
   xmlns:inkscape="http://www.inkscape.org/namespaces/inkscape"
   xmlns:sodipodi="http://sodipodi.sourceforge.net/DTD/sodipodi-0.dtd"
   xmlns:xlink="http://www.w3.org/1999/xlink"
   xmlns="http://www.w3.org/2000/svg"
   xmlns:svg="http://www.w3.org/2000/svg"><defs
     id="defs7"><inkscape:path-effect
       effect="simplify"
       id="path-effect5348"
       is_visible="true"
       lpeversion="1"
       steps="1"
       threshold="0.002"
       smooth_angles="0"
       helper_size="5"
       simplify_individual_paths="false"
       simplify_just_coalesce="false" /><inkscape:path-effect
       effect="offset"
       id="path-effect5346"
       is_visible="true"
       lpeversion="1.2"
       linejoin_type="miter"
       unit="mm"
       offset="4.5"
       miter_limit="4"
       attempt_force_join="false"
       update_on_knot_move="true" /><inkscape:path-effect
       effect="simplify"
       id="path-effect5344"
       is_visible="true"
       lpeversion="1"
       steps="0"
       threshold="0.002"
       smooth_angles="0"
       helper_size="0"
       simplify_individual_paths="true"
       simplify_just_coalesce="false" /></defs><sodipodi:namedview
     id="namedview5"
     pagecolor="#ffffff"
     bordercolor="#666666"
     borderopacity="1.0"
     inkscape:showpageshadow="2"
     inkscape:pageopacity="0.0"
     inkscape:pagecheckerboard="0"
     inkscape:deskcolor="#d1d1d1"
     showgrid="false"
     inkscape:zoom="0.65186406"
     inkscape:cx="1944.4238"
     inkscape:cy="3740.0436"
     inkscape:window-width="1920"
     inkscape:window-height="1017"
     inkscape:window-x="-8"
     inkscape:window-y="-8"
     inkscape:window-maximized="1"
     inkscape:current-layer="svg5" /><image
     width="4096"
     height="4096"
     preserveAspectRatio="none"
     style="image-rendering:optimizeSpeed"
     xlink:href="../../../../descargas/ref_Tshirt.png"
     id="image4869"
     x="0"
     y="0" /><path
     id="path5342"
     style="fill:#000000;fill-opacity:0.431635"
     d="m 714.28273,33.797657 c 0,0 -465.575,126.118863 -358.44484,97.774613 12.0063,-6.35861 -178.29577,47.60072 -284.923976,77.60408 17.300389,51.40957 12.205798,85.79095 43.144676,154.04631 60.3716,179.5315 158.37998,368.27756 124.29883,560.1582 -108.217,81.96784 -276.873389,83.60584 -187.041014,264.51564 67.265704,414.0048 110.292534,860.6701 112.458984,1292.9433 51.08908,119.6603 -94.18717,418.5393 82.06445,418.0528 390.55367,34.3949 782.29496,54.1395 1174.31836,35 153.4087,3.3006 382.2452,-12.7153 517.016,-8.9446 -4.3095,-134.5748 -5.2345,-166.8716 -4.0083,-239.2637 -5.4447,-160.9913 79.9921,-316.8356 54.5488,-478.0124 -48.229,-145.083 -37.024,-294.8168 -13.5194,-444.166 26.3069,-237.5697 58.6709,-475.2729 89.9604,-712.0235 -79.0416,-44.3945 -190.866,-112.01168 -246.6695,-140.43213 9.8158,-65.00554 45.3241,-109.06027 49.756,-165.14988 C 1900.3566,564.8942 1972.2756,392.28173 2029.791,217.42188 1815.9216,154.99557 1596.7936,84.981243 1379.7416,34.740704 1339.6167,176.84824 1283.7781,341.56686 1125.2969,407.60352 937.13391,455.08115 797.68742,330.06582 741.04688,117.06445 726.59305,77.412109 714.28273,33.797657 714.28273,33.797657 Z M 3401.9078,58.554846 C 3329.1296,208.58457 3244.3372,203.34864 3006.3223,206 2819.6466,183.59851 2800.9151,133.84364 2753.6871,64.140471 2551.6756,116.72743 2320.9068,195.32825 2118.6581,251.00828 c 60.6053,205.51352 136.5758,430.20147 102.9383,649.01875 -21.2366,99.82954 -89.6673,138.26127 -148.342,167.68827 -1.2347,18.3118 6.3894,79.9619 11.6023,105.661 23.9225,187.7017 53.8961,344.8115 65.3835,533.6315 -24.7946,167.6625 59.4389,326.0999 41.9258,496.1055 12.0653,215.2845 11.1221,432.2882 12.1074,655.8457 -12.7943,58.2248 -0.1438,55.9662 -10.2219,82.8866 73.1571,22.5132 251.5158,13.2851 343.593,14.3224 256.4713,-0.5642 517.5594,6.9252 763.3672,4.1484 217.4195,-12.6609 453.4672,1.6835 667.8041,-40.7152 0.6339,-26.1072 -13.434,-50.251 -13.0165,-76.9566 2.5607,-163.8029 1.8016,-337.4093 6.937,-503.0118 7.2893,-420.0463 65.9846,-858.5812 126.769,-1270.1663 -153.3501,-58.6897 -176.5042,-212.49587 -157.2276,-377.98158 8.6121,-148.97713 80.3512,-337.56303 115.9801,-443.78961 -216.8844,-56.19578 -435.4775,-129.02532 -646.35,-189.140464 z M 1047.5195,2943.3066 c -220.7814,32.089 -396.39906,250.4946 -513.67565,359.6705 -117.27659,109.1758 -183.79767,96.0438 -269.67954,133.0508 l -2.07321,118.6902 28.06045,277.3631 124.91876,20.9952 c 453.99752,7.1739 1261.11939,0.8231 1368.03569,-3.2208 9.178,-135.7843 20.3395,-289.622 36.0765,-425.4347 -155.9191,6.1846 -289.7261,-133.3781 -405.3794,-248.8939 -101.0657,-102.0033 -215.2286,-215.3413 -366.2836,-232.2204 z m 2043.1563,161.3106 c -145.1809,5.9892 -248.2981,130.4756 -337.3145,234.418 -106.9417,106.8319 -248.2251,204.2581 -399.2073,233.0662 -8.0349,19.0164 0.4677,22.6367 3.6655,56.0531 1.2935,114.9479 35.5519,197.0824 22.0048,373.8505 333.4809,14.9661 689.2032,2.6573 1028.2409,7.9781 146.3335,0.2864 304.0519,-0.9761 441.0428,0.8867 -3.9826,-161.7825 27.3306,-342.6502 45.8524,-458.117 -59.9621,1.3741 -118.8329,-17.5897 -176.4997,-25.3816 -68.0595,-39.95 -138.0906,-91.6358 -194.2478,-141.0548 -108.537,-112.204 -212.4973,-271.1895 -384.8418,-276.834 l -19.0899,-4.4375 v 0 c -10.0609,-0.6952 -19.9267,-0.8231 -29.6054,-0.4238 z M 52.068359,3861.6953 V 4065.627 H 1989.4238 v -203.9317 z"
     sodipodi:nodetypes="cccccccccccccccccccccccccccccccccccscccccczcccccccccccccccccccccscccccc" /></svg>
