<?xml version="1.0" encoding="UTF-8" standalone="no"?><svg
   id="template"
   viewBox="0 0 4096 4096"
   height="4096"
   width="4096"
   version="1.1"
   sodipodi:docname="zona3.svg"
   inkscape:version="1.2.1 (9c6d41e410, 2022-07-14)"
   xml:space="preserve"
   xmlns:inkscape="http://www.inkscape.org/namespaces/inkscape"
   xmlns:sodipodi="http://sodipodi.sourceforge.net/DTD/sodipodi-0.dtd"
   xmlns="http://www.w3.org/2000/svg"
   xmlns:svg="http://www.w3.org/2000/svg"><defs
     id="defs41531">
     </defs>
     <g id="zona">
     <rect
     x="0"
     y="0"
     width="4096"
     height="4096"
     fill="#000000"
     id="rect4" />
     <path
     style="fill:#ffffff"
     d="m 1278,2935.046 c -44.653,13.6542 -22.0411,-30.0641 -18.9745,-53.546 94.635,-427.513 271.6652,-828.8006 432.5622,-1233.7829 81.0782,-200.6117 163.831,-404.7951 216.6775,-613.5297 13.353,25.819 -6.6554,72.8739 -9.3221,107.0318 -64.5724,316.7532 -169.157,624.9024 -260.944,932.9725 -85.2584,281.6651 -163.5613,569.1906 -206.4465,861.8083 -51.1818,-0.3966 -102.3803,0.177 -153.5526,-0.954 z m 2311.2551,-0.6371 C 3545.8017,2635.177 3463.8906,2343.9649 3378,2054.8508 3318.8031,1861.753 3254.7198,1661.5109 3200.4819,1464 3163.9272,1324.8606 3124.0129,1182.2153 3106,1040.9505 c 18.0461,-31.7384 14.512,90.3897 20.8582,45.6622 85.2744,301.4409 217.121,587.414 330.0375,877.9373 125.2579,315.3908 249.8956,634.704 315.2901,969.1957 -60.2879,1.8571 -124.4151,3.8941 -182.9307,0.6632 z M 1278,2935.046 c -44.653,13.6542 -22.0411,-30.0641 -18.9745,-53.546 94.635,-427.513 271.6652,-828.8006 432.5622,-1233.7829 81.0782,-200.6117 163.831,-404.7951 216.6775,-613.5297 13.353,25.819 -6.6554,72.8739 -9.3221,107.0318 -64.5724,316.7532 -169.157,624.9024 -260.944,932.9725 -85.2584,281.6651 -163.5613,569.1906 -206.4465,861.8083 -51.1818,-0.3966 -102.3803,0.177 -153.5526,-0.954 z m 2311.2551,-0.6371 C 3545.8017,2635.177 3463.8906,2343.9649 3378,2054.8508 3318.8031,1861.753 3254.7198,1661.5109 3200.4819,1464 3163.9272,1324.8606 3124.0129,1182.2153 3106,1040.9505 c 18.0461,-31.7384 14.512,90.3897 20.8582,45.6622 85.2744,301.4409 217.121,587.414 330.0375,877.9373 125.2579,315.3908 249.8956,634.704 315.2901,969.1957 -60.2879,1.8571 -124.4151,3.8941 -182.9307,0.6632 z"
     id="path6"
     />
     
     
     </g>
     </svg>
