<?xml version="1.0" encoding="UTF-8" standalone="no"?>
<svg
   id="template"
   viewBox="0 0 4096 4096"
   height="4096"
   width="4096"
   version="1.1"
   xml:space="preserve"
   xmlns="http://www.w3.org/2000/svg"
   xmlns:svg="http://www.w3.org/2000/svg">
   <g id="zona">
     <rect x="0" y="0" width="4096" height="4096" fill="black"/>
     <path
      style="fill:#ffffff"
       d="m 2938,2994.9394 -9.5,-0.7856 -16.5,-1.1035 -16.5,-1.1035 -13,-0.9788 -13,-0.9788 -29.5,-1.9768 -29.5,-1.9768 -14.5,-1.0121 -14.5,-1.0122 -14.5,-0.9853 -14.5,-0.9854 -14.5,-1 -14.5,-1 -14.75,-1.0203 L 2694,2978 l -14.75,-1.0149 -14.75,-1.015 -14,-0.9936 -14,-0.9935 -7,-0.4913 -7,-0.4912 -15,-1.0171 -15,-1.0171 -14,-0.96 -14,-0.96 -14.5,-1.0088 -14.5,-1.0088 -8,-0.5558 -8,-0.5558 -12,-0.9281 -12,-0.9281 -14,-1.1023 -14,-1.1023 -13,-1.9591 -13,-1.9592 -14,-0.9702 -14,-0.9702 -31,-0.955 -31,-0.9549 -24.5,-1.7029 -24.5,-1.7029 -18,-0.091 -18,-0.091 -52,1.4097 -52,1.4097 -8.5,-1.5755 -8.5,-1.5755 -9.5,-2.3129 -9.5,-2.3129 -37,0.2915 -37,0.2916 -2.221,2.0842 -2.221,2.0842 -1.1067,3.3534 -1.1067,3.3534 -2.1723,0.4363 -2.1723,0.4363 -21,0.5801 -21,0.5802 -30,0.9653 -30,0.9653 -32,1.0236 -32,1.0236 -33,1.0072 -33,1.0072 -61.5,1.9735 -61.5,1.9735 -31.5,0.9923 -31.5,0.9923 -34.5,1.0304 -34.5,1.0305 -29.5,0.9946 -29.5,0.9945 -37.5,0.998 -37.5,0.9979 -27,0.9804 -27,0.9804 -30.5,1.0208 -30.5,1.0209 -32,0.9585 -32,0.9585 -11,-2.0759 -11,-2.076 -44,-0.3708 -44,-0.3708 -12.5,-1.4502 -12.5,-1.4501 -13.5,-1.5362 -13.5,-1.5361 -5.25,-1.2651 -5.25,-1.2651 v -1.1331 -1.1331 l 1.9327,-5.8802 1.9327,-5.8803 10.9925,-32.5 10.9925,-32.5 10.9989,-32.5 10.999,-32.5 21.9683,-65 21.9682,-65 9.1649,-27 9.1648,-27 3.87,-11.5 3.87,-11.5 10.9856,-32.5 10.9857,-32.5 23.1641,-68.5 23.1641,-68.5 2.8566,-8.5 2.8565,-8.5 9.4893,-28 9.4893,-28 22.6548,-67 22.6547,-67 11.8227,-35 11.8228,-35 11.1837,-33 11.1838,-33 0.8345,-2.5 0.8345,-2.5 13.014,-38.5 13.014,-38.5 10.9895,-32.5 10.9895,-32.5 21.134,-62.5 21.134,-62.5 2.8741,-8.5 2.8742,-8.5 10.9916,-32.5 10.9916,-32.5 10.9888,-32.5 10.9888,-32.5 21.1433,-62.5 21.1433,-62.5 2.8823,-8.5 2.8824,-8.5 22.1391,-65.5 22.139,-65.5 2.8512,-8.5 2.8512,-8.5 21.1469,-62.5 21.1469,-62.5 2.85,-8.5 2.85,-8.5 18.1329,-53.5 18.133,-53.5 4.3751,-13 4.3752,-13 20.6537,-61 20.6538,-61 11.9823,-35.5 11.9823,-35.5 2.9251,-9.0455 2.9252,-9.0455 24.2572,-11.37179 24.2573,-11.37178 29,-13.68261 29,-13.68261 20.561,-9.65229 20.561,-9.65229 22.439,3.03551 22.439,3.03552 7.25,0.96667 7.25,0.96667 7.25,0.95293 7.25,0.95292 30,4.08581 30,4.08581 7,0.9244 7,0.92439 37.5,5.08185 37.5,5.08185 29.5,3.94687 29.5,3.94687 2.6443,0.56438 2.6443,0.56439 3.1958,9.19376 3.1958,9.19377 14.0017,40 14.0017,40 9.996,28.5 9.996,28.5 6.8357,19.5 6.8357,19.5 17.6776,50.5 17.6775,50.5 7.0029,20 7.0028,20 6.4764,18.5 6.4763,18.5 7.3251,21 7.3252,21 6.1802,17.5 6.1802,17.5 0.817,2.5 0.817,2.5 6.4928,18.5 6.4928,18.5 21.1677,60.5 21.1677,60.5 2.8639,8 2.864,8 7.0004,20 7.0004,20 7.4896,21.5 7.4896,21.5 6.666,19 6.6659,19 9.8353,28 9.8352,28 11.0004,31.5 11.0003,31.5 3.0033,8.5 3.0032,8.5 28.5035,81.5 28.5035,81.5 6.6572,19 6.6572,19 6.8412,19.5 6.8413,19.5 10.6788,30.5 10.6788,30.5 6.8084,19.5 6.8084,19.5 10.1783,29 10.1784,29 6.7928,19.5 6.7927,19.5 10.2036,29 10.2035,29 8.0359,23 8.0358,23 2.7708,8 2.7709,8 10.6685,30.5 10.6685,30.5 2.8641,8 2.8641,8 4.1501,12 4.1501,12 2.8499,8 2.8499,8 4.1333,12 4.1332,12 1.5407,4 1.5408,4 1.7808,5.5 1.7809,5.5 6.0054,17 6.0054,17 18.0456,51.5 18.0455,51.5 3.6704,10.5 3.6705,10.5 9.9713,28.5 9.9713,28.5 2.8524,8 2.8525,8 3.9893,11.5 3.9894,11.5 10.006,28.5 10.0059,28.5 18.1924,52 18.1924,52 6.8094,19.5 6.8094,19.5 6.6673,19 6.6673,19 6.8002,19.5 6.8002,19.5 2.5495,7.25 2.5496,7.25 -7.1891,-0.1375 -7.1891,-0.1375 -9.5,-0.7856 z m -927.9553,-1420.014 0.6537,-2.4443 -0.6132,-4.4906 -0.6132,-4.4905 -0.5818,1 -0.5819,1 -1.2744,4.7154 -1.2744,4.7154 0.6208,1.6177 0.6208,1.6178 1.1949,-0.3983 1.195,-0.3983 z"
    />
   </g>  

     </svg>
